<?xml version="1.0" encoding="UTF-8" standalone="no"?>
<!DOCTYPE svg PUBLIC "-//W3C//DTD SVG 1.1//EN"
 "http://www.w3.org/Graphics/SVG/1.1/DTD/svg11.dtd">
<!-- Generated by graphviz version 2.36.0 (20140111.2315)
 -->
<!-- Title: M1719 Pages: 1 -->
<svg width="231pt" height="229pt"
 viewBox="0.00 0.00 231.11 228.81" xmlns="http://www.w3.org/2000/svg" xmlns:xlink="http://www.w3.org/1999/xlink">
<g id="graph0" class="graph" transform="scale(1 1) rotate(0) translate(4 224.806)">
<title>M1719</title>
<polygon fill="white" stroke="none" points="-4,4 -4,-224.806 227.106,-224.806 227.106,4 -4,4"/>
<!-- a -->
<g id="node1" class="node"><title>a</title>
<ellipse fill="none" stroke="black" cx="27" cy="-161.057" rx="27" ry="19.6"/>
<text text-anchor="middle" x="27" y="-156.657" font-family="Times,serif" font-size="18.00">a</text>
</g>
<!-- Dab -->
<g id="node4" class="node"><title>Dab</title>
<polygon fill="none" stroke="green" points="185.354,-44.6603 174.354,-44.6603 174.354,-33.6603 185.354,-33.6603 185.354,-44.6603"/>
</g>
<!-- a&#45;&gt;Dab -->
<g id="edge1" class="edge"><title>a&#45;&gt;Dab</title>
<path fill="none" stroke="green" d="M45.4377,-146.354C80.0576,-118.745 153.188,-60.4252 174.136,-43.7198"/>
</g>
<!-- Dac -->
<g id="node5" class="node"><title>Dac</title>
<polygon fill="none" stroke="green" points="223.106,-123.053 212.106,-123.053 212.106,-112.053 223.106,-112.053 223.106,-123.053"/>
</g>
<!-- a&#45;&gt;Dac -->
<g id="edge2" class="edge"><title>a&#45;&gt;Dac</title>
<path fill="none" stroke="green" d="M53.1032,-155.099C98.3722,-144.767 188.836,-124.119 212.067,-118.817"/>
</g>
<!-- c -->
<g id="node2" class="node"><title>c</title>
<ellipse fill="none" stroke="black" cx="179.854" cy="-195.945" rx="27" ry="19.6"/>
<text text-anchor="middle" x="179.854" y="-191.545" font-family="Times,serif" font-size="18.00">c</text>
</g>
<!-- c&#45;&gt;Dac -->
<g id="edge6" class="edge"><title>c&#45;&gt;Dac</title>
<path fill="none" stroke="green" stroke-dasharray="5,2" d="M194.516,-179.134C202.191,-166.082 210.675,-148.102 215.287,-134.913"/>
<ellipse fill="none" stroke="green" cx="216.897" cy="-129.092" rx="6.00001" ry="6.00001"/>
</g>
<!-- Jbca -->
<g id="node6" class="node"><title>Jbca</title>
<polygon fill="none" stroke="purple" points="32.5,-79.5482 21.5,-79.5482 21.5,-68.5482 32.5,-68.5482 32.5,-79.5482"/>
</g>
<!-- c&#45;&gt;Jbca -->
<g id="edge7" class="edge"><title>c&#45;&gt;Jbca</title>
<path fill="none" stroke="purple" stroke-dasharray="5,2" d="M161.416,-181.241C130.989,-156.976 70.812,-108.987 42.4619,-86.3787"/>
<ellipse fill="none" stroke="purple" cx="37.4084" cy="-82.3486" rx="6.00002" ry="6.00002"/>
</g>
<!-- Jcba -->
<g id="node7" class="node"><title>Jcba</title>
<polygon fill="none" stroke="purple" points="100.526,-220.806 89.5264,-220.806 89.5264,-209.806 100.526,-209.806 100.526,-220.806"/>
</g>
<!-- c&#45;&gt;Jcba -->
<g id="edge4" class="edge"><title>c&#45;&gt;Jcba</title>
<path fill="none" stroke="purple" d="M153.942,-201.859C135.232,-206.13 111.447,-211.558 100.724,-214.006"/>
</g>
<!-- b -->
<g id="node3" class="node"><title>b</title>
<ellipse fill="none" stroke="black" cx="95.0264" cy="-19.799" rx="27" ry="19.6"/>
<text text-anchor="middle" x="95.0264" y="-15.399" font-family="Times,serif" font-size="18.00">b</text>
</g>
<!-- b&#45;&gt;Dab -->
<g id="edge5" class="edge"><title>b&#45;&gt;Dab</title>
<path fill="none" stroke="green" stroke-dasharray="5,2" d="M117.293,-31.162C131.174,-35.3614 148.798,-39.1744 161.806,-40.6934"/>
<ellipse fill="none" stroke="green" cx="168.094" cy="-41.0204" rx="6" ry="6"/>
</g>
<!-- b&#45;&gt;Jbca -->
<g id="edge3" class="edge"><title>b&#45;&gt;Jbca</title>
<path fill="none" stroke="purple" d="M76.4379,-34.6228C61.8039,-46.293 42.337,-61.8173 32.7852,-69.4346"/>
</g>
<!-- b&#45;&gt;Jcba -->
<g id="edge8" class="edge"><title>b&#45;&gt;Jcba</title>
<path fill="none" stroke="purple" stroke-dasharray="5,2" d="M95.0264,-39.6212C95.0264,-77.8454 95.0264,-161.182 95.0264,-197.638"/>
<ellipse fill="none" stroke="purple" cx="95.0263" cy="-203.796" rx="6" ry="6"/>
</g>
<!-- Dab&#45;&gt;b -->
<g id="edge9" class="edge"><title>Dab&#45;&gt;b</title>
<path fill="none" stroke="green" d="M174.318,-34.0263C165.704,-29.7008 148.449,-24.7705 132.225,-21.4431"/>
<polygon fill="green" stroke="green" points="132.816,-17.9931 122.344,-19.5983 131.531,-24.8742 132.816,-17.9931"/>
</g>
<!-- Dac&#45;&gt;c -->
<g id="edge10" class="edge"><title>Dac&#45;&gt;c</title>
<path fill="none" stroke="green" d="M211.922,-121.152C204.905,-129.278 194.245,-149.206 186.907,-166.47"/>
<polygon fill="green" stroke="green" points="183.473,-165.633 183.022,-176.218 189.975,-168.224 183.473,-165.633"/>
</g>
<!-- Jbca&#45;&gt;a -->
<g id="edge11" class="edge"><title>Jbca&#45;&gt;a</title>
<path fill="none" stroke="purple" d="M27,-79.7571C27,-90.0447 27,-112.361 27,-131.014"/>
<polygon fill="purple" stroke="purple" points="23.4999,-131.177 27,-141.177 30.4999,-131.177 23.4999,-131.177"/>
</g>
<!-- Jcba&#45;&gt;a -->
<g id="edge12" class="edge"><title>Jcba&#45;&gt;a</title>
<path fill="none" stroke="purple" d="M89.2265,-210.681C81.2973,-204.358 66.5554,-192.602 53.4103,-182.119"/>
<polygon fill="purple" stroke="purple" points="55.5076,-179.315 45.5071,-175.816 51.1432,-184.787 55.5076,-179.315"/>
</g>
</g>
</svg>
